<svg xmlns="http://www.w3.org/2000/svg" width="1200" height="675" viewBox="0 0 1200 675" role="img" aria-label="Articles définis">
  <defs>
    <linearGradient id="g" x1="0" y1="0" x2="1" y2="1">
      <stop offset="0%" stop-color="#2563eb"/>
      <stop offset="55%" stop-color="#7c3aed"/>
      <stop offset="100%" stop-color="#10b981"/>
    </linearGradient>
    <filter id="shadow" x="-20%" y="-20%" width="140%" height="140%">
      <feDropShadow dx="0" dy="18" stdDeviation="22" flood-color="#0f172a" flood-opacity="0.22"/>
    </filter>
  </defs>
  <rect width="1200" height="675" rx="42" fill="url(#g)"/>
  <circle cx="1030" cy="120" r="120" fill="rgba(255,255,255,0.12)"/>
  <circle cx="130" cy="560" r="160" fill="rgba(255,255,255,0.10)"/>
  <g filter="url(#shadow)">
    <rect x="120" y="110" width="960" height="455" rx="36" fill="#ffffff"/>
    <rect x="164" y="154" width="220" height="132" rx="26" fill="#eff6ff"/>
    <rect x="408" y="154" width="220" height="132" rx="26" fill="#ecfeff"/>
    <rect x="652" y="154" width="220" height="132" rx="26" fill="#f5f3ff"/>
    <rect x="896" y="154" width="140" height="132" rx="26" fill="#f0fdf4"/>
    <rect x="164" y="310" width="872" height="212" rx="30" fill="#f8fafc"/>
  </g>
  <text x="166" y="225" font-family="Arial, sans-serif" font-size="44" font-weight="700" fill="#1e3a8a">le</text>
  <text x="414" y="225" font-family="Arial, sans-serif" font-size="44" font-weight="700" fill="#0f766e">la</text>
  <text x="656" y="225" font-family="Arial, sans-serif" font-size="44" font-weight="700" fill="#6d28d9">les</text>
  <text x="916" y="225" font-family="Arial, sans-serif" font-size="44" font-weight="700" fill="#15803d">l'</text>
  <text x="200" y="392" font-family="Arial, sans-serif" font-size="34" font-weight="700" fill="#0f172a">Articles définis</text>
  <text x="200" y="442" font-family="Arial, sans-serif" font-size="22" fill="#475569">Leçon · Entraînement · Évaluation</text>
  <text x="200" y="486" font-family="Arial, sans-serif" font-size="20" fill="#64748b">Une progression simple, légère et interactive.</text>
</svg>
